<!DOCTYPE svg PUBLIC "-//W3C//DTD SVG 1.1//EN" "http://www.w3.org/Graphics/SVG/1.1/DTD/svg11.dtd">
<!-- Uploaded to: SVG Repo, www.svgrepo.com, Transformed by: SVG Repo Mixer Tools -->
<svg fill="#000000" height="81px" width="81px" version="1.1" id="Layer_1" xmlns="http://www.w3.org/2000/svg" xmlns:xlink="http://www.w3.org/1999/xlink" viewBox="0 0 508.258 508.258" xml:space="preserve" transform="matrix(-1, 0, 0, 1, 0, 0)">
<g id="SVGRepo_bgCarrier" stroke-width="0"/>
<g id="SVGRepo_tracerCarrier" stroke-linecap="round" stroke-linejoin="round"/>
<g id="SVGRepo_iconCarrier"> <g transform="translate(1 1)"> <g> <path d="M272.259,216.377c9.192,1.704,17.862,2.772,25.996,2.772c22.563,0,42.522-6.075,59.01-19.959 c26.034-20.827,44.258-57.275,56.407-111.946c0-1.736,0-4.339-1.736-6.942c-0.868-1.736-2.603-2.603-5.207-3.471 c-20.153-4.429-38.776-2.404-55.588,4.12c-3.023-21.951-13.741-45.418-34.662-77.882c-2.603-4.339-7.81-5.207-12.149-2.603 c-21.959,13.63-45.238,31.226-61.192,56.244c-12.298-11.534-27.352-19.464-44.679-23.268c-4.339-0.868-9.546,2.603-10.414,6.942 c-9.546,42.522-8.678,79.837,1.736,109.342c11.082,31.662,32.998,53.209,65.081,63.338c-7.114,21.161-11.169,44.796-13.034,69.299 c-3.651-3.786-7.655-7.497-11.491-10.266c-0.208-0.427-0.452-0.838-0.74-1.228c-20.475-76.181-91.662-81.07-130.934-71.679 c-1.736,0-4.339,1.736-5.207,3.471s-0.868,4.339-0.868,6.075l0.868,2.603c1.736,11.281,8.678,45.993,39.919,65.953 c13.885,8.678,30.373,13.017,50.332,13.017c11.99,0,24.716-1.491,37.5-4.436c5.856,4.148,14.126,13.585,19.47,20.302 c-0.655,29.797,1.431,60.09,4.773,88.124c-0.081,0.675-0.129,1.31-0.129,1.881c0,1.531,0.307,2.906,0.863,4.093 c0.761,5.997,1.577,11.875,2.43,17.613c-2.718-2.295-5.614-4.598-8.7-7.008c-1.549-22.537-10.029-39.593-23.231-51.146 c-15.62-13.017-36.447-17.356-62.481-14.753h-1.736c-4.339,0.868-7.81,4.339-7.81,9.546c0,0.868,0,1.736,0,2.603 c0,8.678,0,32.976,18.224,50.332c13.017,11.281,32.108,17.356,56.407,17.356c3.089,0,6.179-0.437,9.268-0.69 c13.008,10.7,20.283,16.798,25.98,28.652c3.452,18.11,6.985,33.542,9.878,44.933c1.736,5.207,6.075,9.546,11.281,9.546 c0,0,8.678-0.868,7.81-9.546c-4.901-19.227-14.222-58.769-20.141-104.882c2.274-6.788,9.366-21.852,14.761-29.626 c0.636,0,1.272,0,1.908,0c28.637,0,49.464-6.942,64.217-22.563c19.959-19.092,19.091-45.125,19.091-53.803v-0.868 c0-4.339-5.207-8.678-9.546-8.678c-27.769-0.868-51.2,6.942-66.82,21.695c-13.064,13.064-19.978,29.972-20.75,51.441 c-2.052,2.533-4.217,5.71-6.346,9.235C255.922,310.599,257.343,258.088,272.259,216.377z M142.919,262.539 c-20.827-13.017-27.77-35.58-31.241-48.597c20.692-3.183,71.305-4.898,94.951,42.365c-16.792-10.018-31.861-17.969-51.561-23.273 c-4.339-1.736-9.546,1.736-10.414,6.075c-1.736,4.339,1.736,9.546,6.075,10.414c17.994,4.694,31.767,12.921,48.292,22.761 C176.381,274.735,157.499,272.016,142.919,262.539z M393.712,91.583c-11.281,45.993-26.902,76.366-47.729,93.722 c-18.135,14.681-39.711,19.904-68.997,14.824c10.353-37.319,35.309-80.421,70.732-98.132c0.872-0.581,1.635-1.269,2.279-2.044 C363.355,93.238,378.027,89.944,393.712,91.583z M306.932,19.556c18.224,29.505,26.902,50.332,27.769,69.424 c-23.943,13.681-41.976,35.791-54.953,58.852c-0.867-15.317-3.374-30.015-7.528-43.232c-4.139-13.009-9.894-24.504-17.085-34.319 C267.308,47.978,287.116,32.48,306.932,19.556z M205.4,143.651c-7.81-24.298-8.678-55.539-1.736-91.119 c12.867,4.437,23.687,11.603,32.47,21.484c0.321,0.991,0.798,1.951,1.374,2.814c22.553,29.319,27.515,74.262,22.799,111.71 c-0.334,2.391-0.693,4.784-1.104,7.178C232.302,187.908,214.946,169.685,205.4,143.651z M162.01,362.336 c18.224-0.868,32.976,2.603,43.39,11.281c4.909,3.927,8.706,9.246,11.551,15.794c-4.307-3.285-8.736-6.251-13.286-8.851 c-4.339-1.736-9.546-0.868-12.149,3.471c-1.736,4.339-0.868,9.546,3.471,12.149c5.174,3.184,9.981,6.555,14.593,10.272 c-15.018-1.017-26.977-5.301-34.552-12.876C164.614,384.031,162.01,371.014,162.01,362.336z M345.983,295.515 c-0.868,8.678-2.603,23.431-13.885,33.844c-8.349,8.349-20.056,13.344-35.547,15.446c3.878-3.603,7.565-7.082,11.249-10.24 c3.471-2.603,3.471-8.678,0.868-12.149c-2.603-3.471-8.678-3.471-12.149-0.868c-3.041,2.661-5.915,5.327-8.769,8.061 c2.529-6.732,6.37-12.604,11.372-17.606C309.536,301.59,326.024,296.383,345.983,295.515z"/> </g> </g> </g>
</svg>