<!DOCTYPE svg PUBLIC "-//W3C//DTD SVG 1.1//EN" "http://www.w3.org/Graphics/SVG/1.1/DTD/svg11.dtd">
<!-- Uploaded to: SVG Repo, www.svgrepo.com, Transformed by: SVG Repo Mixer Tools -->
<svg fill="#000000" height="64px" width="64px" version="1.1" id="Layer_1" xmlns="http://www.w3.org/2000/svg" xmlns:xlink="http://www.w3.org/1999/xlink" viewBox="-40.96 -40.96 593.92 593.92" xml:space="preserve" stroke="#000000" stroke-width="0.00512">
<g id="SVGRepo_bgCarrier" stroke-width="0"/>
<g id="SVGRepo_tracerCarrier" stroke-linecap="round" stroke-linejoin="round"/>
<g id="SVGRepo_iconCarrier"> <g> <g> <circle cx="150.261" cy="294.956" r="16.696"/> </g> </g> <g> <g> <circle cx="361.739" cy="294.956" r="16.696"/> </g> </g> <g> <g> <path d="M461.913,211.478c27.618,0,50.087-22.469,50.087-50.087c0-27.618-22.469-50.087-50.087-50.087 c-5.866,0-11.494,1.023-16.73,2.884C443.752,50.955,391.869,0,328.348,0H183.652C120.129,0,68.248,50.957,66.817,114.188 c-5.236-1.861-10.864-2.884-16.73-2.884C22.469,111.304,0,133.773,0,161.391c0,27.618,22.469,50.087,50.087,50.087 c5.852,0,11.47-1.018,16.696-2.872v139.309c-19.433,6.892-33.391,25.45-33.391,47.215c0,27.618,22.469,50.087,50.087,50.087 v16.696c0,27.618,22.469,50.087,50.087,50.087c27.618,0,50.087-22.469,50.087-50.087v-16.696h144.696v16.696 c0,27.618,22.469,50.087,50.087,50.087c27.618,0,50.087-22.469,50.087-50.087v-16.696c27.618,0,50.087-22.469,50.087-50.087 c0-21.766-13.959-40.323-33.391-47.215V208.607C450.443,210.46,456.061,211.478,461.913,211.478z M461.913,144.696 c9.206,0,16.696,7.49,16.696,16.696c0,9.206-7.49,16.696-16.696,16.696s-16.696-7.49-16.696-16.696 C445.217,152.185,452.707,144.696,461.913,144.696z M410.146,100.174c1.1,5.396,1.68,10.979,1.68,16.696v61.217h-139.13v-77.913 H410.146z M411.826,212.388v132.656H273.712C282.001,276.398,340.565,220.1,411.826,212.388z M256,287.045 c-14.314-30.46-37.24-56.685-65.111-75.567h130.223C293.248,230.354,270.318,256.577,256,287.045z M183.652,33.391h144.696 c27.252,0,51.492,13.129,66.737,33.391h-278.17C132.161,46.521,156.4,33.391,183.652,33.391z M100.174,116.87 c0-5.717,0.58-11.3,1.68-16.696h137.451v77.913h-139.13V116.87z M100.174,212.388c71.261,7.711,129.825,64.01,138.114,132.656 H100.174V212.388z M50.087,178.087c-9.206,0-16.696-7.49-16.696-16.696c0-9.206,7.49-16.696,16.696-16.696 s16.696,7.49,16.696,16.696C66.783,170.597,59.293,178.087,50.087,178.087z M150.261,461.913c0,9.206-7.49,16.696-16.696,16.696 c-9.206,0-16.696-7.49-16.696-16.696v-16.696h33.391V461.913z M395.13,461.913c0,9.206-7.49,16.696-16.696,16.696 c-9.206,0-16.696-7.49-16.696-16.696v-16.696h33.391V461.913z M428.522,411.826c-14.049,0-333.585,0-345.043,0 c-9.206,0-16.696-7.49-16.696-16.696s7.49-16.696,16.696-16.696h345.043c9.206,0,16.696,7.49,16.696,16.696 S437.728,411.826,428.522,411.826z"/> </g> </g> </g>
</svg>